<svg xmlns="http://www.w3.org/2000/svg" viewBox="0 0 360 220" role="img" aria-label="Maze thumbnail">
  <defs>
    <linearGradient id="bg" x1="0" y1="0" x2="1" y2="1">
      <stop offset="0%" stop-color="#0c141d"/>
      <stop offset="100%" stop-color="#17283a"/>
    </linearGradient>
    <linearGradient id="wall" x1="0" y1="0" x2="0" y2="1">
      <stop offset="0%" stop-color="#7ea6c8"/>
      <stop offset="100%" stop-color="#4f6f8a"/>
    </linearGradient>
  </defs>
  <rect width="360" height="220" fill="url(#bg)" rx="14"/>
  <rect x="14" y="14" width="332" height="192" rx="10" fill="none" stroke="#9ec7eb" stroke-width="6"/>

  <rect x="52" y="42" width="210" height="10" fill="url(#wall)"/>
  <rect x="100" y="42" width="10" height="88" fill="url(#wall)"/>
  <rect x="100" y="120" width="150" height="10" fill="url(#wall)"/>
  <rect x="240" y="120" width="10" height="56" fill="url(#wall)"/>
  <rect x="70" y="166" width="180" height="10" fill="url(#wall)"/>
  <rect x="52" y="76" width="130" height="10" fill="url(#wall)"/>
  <rect x="172" y="76" width="10" height="62" fill="url(#wall)"/>
  <rect x="208" y="52" width="10" height="58" fill="url(#wall)"/>
  <rect x="268" y="60" width="46" height="10" fill="url(#wall)"/>
  <rect x="304" y="60" width="10" height="96" fill="url(#wall)"/>

  <rect x="26" y="170" width="38" height="24" rx="5" fill="#68d7a3" stroke="#2ca36e" stroke-width="2"/>
  <text x="45" y="187" text-anchor="middle" font-family="Segoe UI, Arial, sans-serif" font-size="11" font-weight="700" fill="#0f3021">START</text>

  <rect x="294" y="22" width="52" height="24" rx="5" fill="#ffc87a" stroke="#d28b2e" stroke-width="2"/>
  <text x="320" y="39" text-anchor="middle" font-family="Segoe UI, Arial, sans-serif" font-size="11" font-weight="700" fill="#3b1d08">FINISH</text>

  <circle cx="45" cy="148" r="8" fill="#8fd8ff"/>
</svg>
